# xmcd
#
# Track frame offsets:
#	150
#	26365
#	40564
#	55894
#	73405
#	93793
#	114079
#	129588
#	143427
#	161640
#	179569
#	189969
#	198305
#	203092
#	209282
#	213409
#	217618
#	224536
#
# Disc length: 3246 seconds
#
# Revision: 0
# Processed by: cddbd v1.5.1PL2 Copyright (c) Steve Scherf et al.
# Submitted via: dBpowerAMP V4.0
#
DISCID=fe0cac12
DTITLE=Gert Visser - Somernagrëen
DYEAR=2003
DGENRE=Afrikaans
TTITLE0=Somernagrëen
TTITLE1=Wat Nou Van My
TTITLE2=Droomverlore
TTITLE3=Al Wat Ek Wil Hê
TTITLE4=Ek Is Lief Vir Die Wêreld
TTITLE5=Gatiep En Meraai
TTITLE6=Santa Maria
TTITLE7=Mooiste Madelein
TTITLE8=Speelgoed
TTITLE9=Bokke
TTITLE10=Rooi Rok Bokkie
TTITLE11=Jaloersbokkie
TTITLE12=Meisie Sonder Sokkies
TTITLE13=Ou Ryperd
TTITLE14=Daar's 'n Hoender
TTITLE15=Daar Lê Die Ding
TTITLE16=Boesmanland
TTITLE17=Bokvang
EXTD=
EXTT0=
EXTT1=
EXTT2=
EXTT3=
EXTT4=
EXTT5=
EXTT6=
EXTT7=
EXTT8=
EXTT9=
EXTT10=
EXTT11=
EXTT12=
EXTT13=
EXTT14=
EXTT15=
EXTT16=
EXTT17=
PLAYORDER=
